<?xml version="1.0" encoding="UTF-8" standalone="no"?>
<!DOCTYPE svg PUBLIC "-//W3C//DTD SVG 1.1//EN"
 "http://www.w3.org/Graphics/SVG/1.1/DTD/svg11.dtd">
<!-- Generated by graphviz version 14.1.1 (20251213.1925)
 -->
<!-- Title: InheritanceTree Pages: 1 -->
<svg width="394pt" height="861pt"
 viewBox="0.00 0.00 394.00 861.00" xmlns="http://www.w3.org/2000/svg" xmlns:xlink="http://www.w3.org/1999/xlink">
<g id="graph0" class="graph" transform="scale(1 1) rotate(0) translate(4 856.5)">
<title>InheritanceTree</title>
<polygon fill="white" stroke="none" points="-4,4 -4,-856.5 390,-856.5 390,4 -4,4"/>
<text xml:space="preserve" text-anchor="middle" x="193" y="-7.2" font-family="Times New Roman,serif" font-size="14.00">simple_diff &#45; Inheritance Hierarchy</text>
<!-- DIFF_ENGINE -->
<g id="node1" class="node">
<title>DIFF_ENGINE</title>
<path fill="none" stroke="black" d="M118,-60.5C118,-60.5 39.75,-60.5 39.75,-60.5 33.75,-60.5 27.75,-54.5 27.75,-48.5 27.75,-48.5 27.75,-36.5 27.75,-36.5 27.75,-30.5 33.75,-24.5 39.75,-24.5 39.75,-24.5 118,-24.5 118,-24.5 124,-24.5 130,-30.5 130,-36.5 130,-36.5 130,-48.5 130,-48.5 130,-54.5 124,-60.5 118,-60.5"/>
<text xml:space="preserve" text-anchor="middle" x="78.88" y="-37.45" font-family="Times New Roman,serif" font-size="14.00">DIFF_ENGINE</text>
</g>
<!-- DIFF_HUNK -->
<g id="node2" class="node">
<title>DIFF_HUNK</title>
<path fill="none" stroke="black" d="M112.38,-132.5C112.38,-132.5 45.38,-132.5 45.38,-132.5 39.38,-132.5 33.38,-126.5 33.38,-120.5 33.38,-120.5 33.38,-108.5 33.38,-108.5 33.38,-102.5 39.38,-96.5 45.38,-96.5 45.38,-96.5 112.38,-96.5 112.38,-96.5 118.38,-96.5 124.38,-102.5 124.38,-108.5 124.38,-108.5 124.38,-120.5 124.38,-120.5 124.38,-126.5 118.38,-132.5 112.38,-132.5"/>
<text xml:space="preserve" text-anchor="middle" x="78.88" y="-109.45" font-family="Times New Roman,serif" font-size="14.00">DIFF_HUNK</text>
</g>
<!-- DIFF_LINE -->
<g id="node3" class="node">
<title>DIFF_LINE</title>
<path fill="none" stroke="black" d="M108.25,-204.5C108.25,-204.5 49.5,-204.5 49.5,-204.5 43.5,-204.5 37.5,-198.5 37.5,-192.5 37.5,-192.5 37.5,-180.5 37.5,-180.5 37.5,-174.5 43.5,-168.5 49.5,-168.5 49.5,-168.5 108.25,-168.5 108.25,-168.5 114.25,-168.5 120.25,-174.5 120.25,-180.5 120.25,-180.5 120.25,-192.5 120.25,-192.5 120.25,-198.5 114.25,-204.5 108.25,-204.5"/>
<text xml:space="preserve" text-anchor="middle" x="78.88" y="-181.45" font-family="Times New Roman,serif" font-size="14.00">DIFF_LINE</text>
</g>
<!-- DIFF_RENDERER -->
<g id="node4" class="node">
<title>DIFF_RENDERER</title>
<path fill="none" stroke="black" d="M128.5,-276.5C128.5,-276.5 29.25,-276.5 29.25,-276.5 23.25,-276.5 17.25,-270.5 17.25,-264.5 17.25,-264.5 17.25,-252.5 17.25,-252.5 17.25,-246.5 23.25,-240.5 29.25,-240.5 29.25,-240.5 128.5,-240.5 128.5,-240.5 134.5,-240.5 140.5,-246.5 140.5,-252.5 140.5,-252.5 140.5,-264.5 140.5,-264.5 140.5,-270.5 134.5,-276.5 128.5,-276.5"/>
<text xml:space="preserve" text-anchor="middle" x="78.88" y="-253.45" font-family="Times New Roman,serif" font-size="14.00">DIFF_RENDERER</text>
</g>
<!-- DIFF_RESULT -->
<g id="node5" class="node">
<title>DIFF_RESULT</title>
<path fill="none" stroke="black" d="M118,-348.5C118,-348.5 39.75,-348.5 39.75,-348.5 33.75,-348.5 27.75,-342.5 27.75,-336.5 27.75,-336.5 27.75,-324.5 27.75,-324.5 27.75,-318.5 33.75,-312.5 39.75,-312.5 39.75,-312.5 118,-312.5 118,-312.5 124,-312.5 130,-318.5 130,-324.5 130,-324.5 130,-336.5 130,-336.5 130,-342.5 124,-348.5 118,-348.5"/>
<text xml:space="preserve" text-anchor="middle" x="78.88" y="-325.45" font-family="Times New Roman,serif" font-size="14.00">DIFF_RESULT</text>
</g>
<!-- PATCH_APPLIER -->
<g id="node6" class="node">
<title>PATCH_APPLIER</title>
<path fill="none" stroke="black" d="M126.62,-420.5C126.62,-420.5 31.12,-420.5 31.12,-420.5 25.12,-420.5 19.13,-414.5 19.13,-408.5 19.13,-408.5 19.13,-396.5 19.13,-396.5 19.13,-390.5 25.13,-384.5 31.13,-384.5 31.13,-384.5 126.62,-384.5 126.62,-384.5 132.62,-384.5 138.62,-390.5 138.62,-396.5 138.62,-396.5 138.62,-408.5 138.62,-408.5 138.62,-414.5 132.62,-420.5 126.62,-420.5"/>
<text xml:space="preserve" text-anchor="middle" x="78.88" y="-397.45" font-family="Times New Roman,serif" font-size="14.00">PATCH_APPLIER</text>
</g>
<!-- SIMPLE_DIFF -->
<g id="node7" class="node">
<title>SIMPLE_DIFF</title>
<path fill="none" stroke="black" d="M117.25,-492.5C117.25,-492.5 40.5,-492.5 40.5,-492.5 34.5,-492.5 28.5,-486.5 28.5,-480.5 28.5,-480.5 28.5,-468.5 28.5,-468.5 28.5,-462.5 34.5,-456.5 40.5,-456.5 40.5,-456.5 117.25,-456.5 117.25,-456.5 123.25,-456.5 129.25,-462.5 129.25,-468.5 129.25,-468.5 129.25,-480.5 129.25,-480.5 129.25,-486.5 123.25,-492.5 117.25,-492.5"/>
<text xml:space="preserve" text-anchor="middle" x="78.88" y="-469.45" font-family="Times New Roman,serif" font-size="14.00">SIMPLE_DIFF</text>
</g>
<!-- ADVERSARIAL_TESTS -->
<g id="node8" class="node">
<title>ADVERSARIAL_TESTS</title>
<path fill="none" stroke="black" d="M145.75,-708.5C145.75,-708.5 12,-708.5 12,-708.5 6,-708.5 0,-702.5 0,-696.5 0,-696.5 0,-684.5 0,-684.5 0,-678.5 6,-672.5 12,-672.5 12,-672.5 145.75,-672.5 145.75,-672.5 151.75,-672.5 157.75,-678.5 157.75,-684.5 157.75,-684.5 157.75,-696.5 157.75,-696.5 157.75,-702.5 151.75,-708.5 145.75,-708.5"/>
<text xml:space="preserve" text-anchor="middle" x="78.88" y="-685.45" font-family="Times New Roman,serif" font-size="14.00">ADVERSARIAL_TESTS</text>
</g>
<!-- TEST_SET_BASE -->
<g id="node9" class="node">
<title>TEST_SET_BASE</title>
<path fill="none" stroke="black" d="M374,-636.5C374,-636.5 277.75,-636.5 277.75,-636.5 271.75,-636.5 265.75,-630.5 265.75,-624.5 265.75,-624.5 265.75,-612.5 265.75,-612.5 265.75,-606.5 271.75,-600.5 277.75,-600.5 277.75,-600.5 374,-600.5 374,-600.5 380,-600.5 386,-606.5 386,-612.5 386,-612.5 386,-624.5 386,-624.5 386,-630.5 380,-636.5 374,-636.5"/>
<text xml:space="preserve" text-anchor="middle" x="325.88" y="-613.45" font-family="Times New Roman,serif" font-size="14.00">TEST_SET_BASE</text>
</g>
<!-- ADVERSARIAL_TESTS&#45;&gt;TEST_SET_BASE -->
<g id="edge1" class="edge">
<title>ADVERSARIAL_TESTS&#45;&gt;TEST_SET_BASE</title>
<path fill="none" stroke="black" d="M149,-672.28C149,-653.67 149,-627.5 149,-627.5 149,-627.5 253.99,-627.5 253.99,-627.5"/>
<polygon fill="none" stroke="black" points="253.99,-631 263.99,-627.5 253.99,-624 253.99,-631"/>
</g>
<!-- LIB_TESTS -->
<g id="node10" class="node">
<title>LIB_TESTS</title>
<path fill="none" stroke="black" d="M109,-636.5C109,-636.5 48.75,-636.5 48.75,-636.5 42.75,-636.5 36.75,-630.5 36.75,-624.5 36.75,-624.5 36.75,-612.5 36.75,-612.5 36.75,-606.5 42.75,-600.5 48.75,-600.5 48.75,-600.5 109,-600.5 109,-600.5 115,-600.5 121,-606.5 121,-612.5 121,-612.5 121,-624.5 121,-624.5 121,-630.5 115,-636.5 109,-636.5"/>
<text xml:space="preserve" text-anchor="middle" x="78.88" y="-613.45" font-family="Times New Roman,serif" font-size="14.00">LIB_TESTS</text>
</g>
<!-- LIB_TESTS&#45;&gt;TEST_SET_BASE -->
<g id="edge2" class="edge">
<title>LIB_TESTS&#45;&gt;TEST_SET_BASE</title>
<path fill="none" stroke="black" d="M121.34,-618.5C121.34,-618.5 253.98,-618.5 253.98,-618.5"/>
<polygon fill="none" stroke="black" points="253.98,-622 263.98,-618.5 253.98,-615 253.98,-622"/>
</g>
<!-- STRESS_TESTS -->
<g id="node11" class="node">
<title>STRESS_TESTS</title>
<path fill="none" stroke="black" d="M122.12,-564.5C122.12,-564.5 35.62,-564.5 35.62,-564.5 29.62,-564.5 23.62,-558.5 23.62,-552.5 23.62,-552.5 23.62,-540.5 23.62,-540.5 23.62,-534.5 29.62,-528.5 35.62,-528.5 35.62,-528.5 122.12,-528.5 122.12,-528.5 128.12,-528.5 134.12,-534.5 134.12,-540.5 134.12,-540.5 134.12,-552.5 134.12,-552.5 134.12,-558.5 128.12,-564.5 122.12,-564.5"/>
<text xml:space="preserve" text-anchor="middle" x="78.88" y="-541.45" font-family="Times New Roman,serif" font-size="14.00">STRESS_TESTS</text>
</g>
<!-- STRESS_TESTS&#45;&gt;TEST_SET_BASE -->
<g id="edge3" class="edge">
<title>STRESS_TESTS&#45;&gt;TEST_SET_BASE</title>
<path fill="none" stroke="black" d="M128,-564.72C128,-583.33 128,-609.5 128,-609.5 128,-609.5 253.92,-609.5 253.92,-609.5"/>
<polygon fill="none" stroke="black" points="253.92,-613 263.92,-609.5 253.92,-606 253.92,-613"/>
</g>
<!-- TEST_APP -->
<g id="node12" class="node">
<title>TEST_APP</title>
<path fill="none" stroke="black" d="M106.75,-780.5C106.75,-780.5 51,-780.5 51,-780.5 45,-780.5 39,-774.5 39,-768.5 39,-768.5 39,-756.5 39,-756.5 39,-750.5 45,-744.5 51,-744.5 51,-744.5 106.75,-744.5 106.75,-744.5 112.75,-744.5 118.75,-750.5 118.75,-756.5 118.75,-756.5 118.75,-768.5 118.75,-768.5 118.75,-774.5 112.75,-780.5 106.75,-780.5"/>
<text xml:space="preserve" text-anchor="middle" x="78.88" y="-757.45" font-family="Times New Roman,serif" font-size="14.00">TEST_APP</text>
</g>
<!-- TEST_PERSON -->
<g id="node13" class="node">
<title>TEST_PERSON</title>
<path fill="none" stroke="black" d="M120.25,-852.5C120.25,-852.5 37.5,-852.5 37.5,-852.5 31.5,-852.5 25.5,-846.5 25.5,-840.5 25.5,-840.5 25.5,-828.5 25.5,-828.5 25.5,-822.5 31.5,-816.5 37.5,-816.5 37.5,-816.5 120.25,-816.5 120.25,-816.5 126.25,-816.5 132.25,-822.5 132.25,-828.5 132.25,-828.5 132.25,-840.5 132.25,-840.5 132.25,-846.5 126.25,-852.5 120.25,-852.5"/>
<text xml:space="preserve" text-anchor="middle" x="78.88" y="-829.45" font-family="Times New Roman,serif" font-size="14.00">TEST_PERSON</text>
</g>
</g>
</svg>
