<?xml version="1.0" encoding="UTF-8" standalone="no"?>
<!DOCTYPE svg PUBLIC "-//W3C//DTD SVG 1.1//EN"
 "http://www.w3.org/Graphics/SVG/1.1/DTD/svg11.dtd">
<!-- Generated by graphviz version 14.1.1 (20251213.1925)
 -->
<!-- Title: Dependencies Pages: 1 -->
<svg width="342pt" height="357pt"
 viewBox="0.00 0.00 342.00 357.00" xmlns="http://www.w3.org/2000/svg" xmlns:xlink="http://www.w3.org/1999/xlink">
<g id="graph0" class="graph" transform="scale(1 1) rotate(0) translate(4 352.5)">
<title>Dependencies</title>
<polygon fill="white" stroke="none" points="-4,4 -4,-352.5 338.25,-352.5 338.25,4 -4,4"/>
<text xml:space="preserve" text-anchor="middle" x="167.12" y="-7.2" font-family="Times New Roman,serif" font-size="14.00">simple_diff &#45; Dependencies</text>
<!-- simple_diff -->
<g id="node1" class="node">
<title>simple_diff</title>
<polygon fill="lightblue" stroke="black" points="79,-204.5 0,-204.5 0,-168.5 79,-168.5 79,-204.5"/>
<text xml:space="preserve" text-anchor="middle" x="39.5" y="-181.45" font-family="Times New Roman,serif" font-size="14.00">simple_diff</text>
</g>
<!-- simple_mml -->
<g id="node2" class="node">
<title>simple_mml</title>
<polygon fill="lightblue" stroke="black" points="321.5,-348.5 235.75,-348.5 235.75,-312.5 321.5,-312.5 321.5,-348.5"/>
<text xml:space="preserve" text-anchor="middle" x="278.62" y="-325.45" font-family="Times New Roman,serif" font-size="14.00">simple_mml</text>
</g>
<!-- simple_diff&#45;&gt;simple_mml -->
<g id="edge1" class="edge">
<title>simple_diff&#45;&gt;simple_mml</title>
<path fill="none" stroke="black" stroke-dasharray="5,2" d="M39.25,-204.74C39.25,-243.49 39.25,-330.5 39.25,-330.5 39.25,-330.5 223.76,-330.5 223.76,-330.5"/>
<polygon fill="black" stroke="black" points="223.76,-334 233.76,-330.5 223.76,-327 223.76,-334"/>
</g>
<!-- simple_reflection -->
<g id="node3" class="node">
<title>simple_reflection</title>
<polygon fill="lightblue" stroke="black" points="334.25,-276.5 223,-276.5 223,-240.5 334.25,-240.5 334.25,-276.5"/>
<text xml:space="preserve" text-anchor="middle" x="278.62" y="-253.45" font-family="Times New Roman,serif" font-size="14.00">simple_reflection</text>
</g>
<!-- simple_diff&#45;&gt;simple_reflection -->
<g id="edge2" class="edge">
<title>simple_diff&#45;&gt;simple_reflection</title>
<path fill="none" stroke="black" stroke-dasharray="5,2" d="M79.32,-192.5C134.43,-192.5 227.25,-192.5 227.25,-192.5 227.25,-192.5 227.25,-228.6 227.25,-228.6"/>
<polygon fill="black" stroke="black" points="223.75,-228.6 227.25,-238.6 230.75,-228.6 223.75,-228.6"/>
</g>
<!-- simple_testing -->
<g id="node4" class="node">
<title>simple_testing</title>
<polygon fill="lightblue" stroke="black" points="326.38,-204.5 230.88,-204.5 230.88,-168.5 326.38,-168.5 326.38,-204.5"/>
<text xml:space="preserve" text-anchor="middle" x="278.62" y="-181.45" font-family="Times New Roman,serif" font-size="14.00">simple_testing</text>
</g>
<!-- simple_diff&#45;&gt;simple_testing -->
<g id="edge3" class="edge">
<title>simple_diff&#45;&gt;simple_testing</title>
<path fill="none" stroke="black" stroke-dasharray="5,2" d="M79.26,-180.5C79.26,-180.5 219.01,-180.5 219.01,-180.5"/>
<polygon fill="black" stroke="black" points="219.01,-184 229.01,-180.5 219.01,-177 219.01,-184"/>
</g>
<!-- base -->
<g id="node5" class="node">
<title>base</title>
<polygon fill="lightgray" stroke="black" points="305.62,-132.5 251.62,-132.5 251.62,-96.5 305.62,-96.5 305.62,-132.5"/>
<text xml:space="preserve" text-anchor="middle" x="278.62" y="-109.45" font-family="Times New Roman,serif" font-size="14.00">base</text>
</g>
<!-- simple_diff&#45;&gt;base -->
<g id="edge4" class="edge">
<title>simple_diff&#45;&gt;base</title>
<path fill="none" stroke="black" stroke-dasharray="5,2" d="M52.25,-168.33C52.25,-147 52.25,-114.5 52.25,-114.5 52.25,-114.5 239.81,-114.5 239.81,-114.5"/>
<polygon fill="black" stroke="black" points="239.81,-118 249.81,-114.5 239.81,-111 239.81,-118"/>
</g>
<!-- testing -->
<g id="node6" class="node">
<title>testing</title>
<polygon fill="lightgray" stroke="black" points="305.62,-60.5 251.62,-60.5 251.62,-24.5 305.62,-24.5 305.62,-60.5"/>
<text xml:space="preserve" text-anchor="middle" x="278.62" y="-37.45" font-family="Times New Roman,serif" font-size="14.00">testing</text>
</g>
<!-- simple_diff&#45;&gt;testing -->
<g id="edge5" class="edge">
<title>simple_diff&#45;&gt;testing</title>
<path fill="none" stroke="black" stroke-dasharray="5,2" d="M26.25,-168.26C26.25,-129.51 26.25,-42.5 26.25,-42.5 26.25,-42.5 239.62,-42.5 239.62,-42.5"/>
<polygon fill="black" stroke="black" points="239.62,-46 249.62,-42.5 239.62,-39 239.62,-46"/>
</g>
</g>
</svg>
